<svg width="41" height="40" viewBox="0 0 41 40" fill="none" xmlns="http://www.w3.org/2000/svg">
<path d="M27.3706 6.66847C26.2217 5.7839 24.9147 5.55264 23.6825 5.29536C19.4802 4.42814 15.66 5.44568 12.193 7.89703C11.8397 8.14564 11.4979 8.41159 11.1303 8.63418C10.0129 9.3135 9.02482 9.13717 8.21195 8.13697C8.04456 7.93096 7.9192 7.69374 7.84303 7.4389C7.76686 7.18407 7.74139 6.91662 7.76807 6.65186C7.79476 6.38711 7.87306 6.13024 7.99852 5.89599C8.12397 5.66173 8.29411 5.45468 8.49918 5.28669C9.58747 4.34929 10.7741 3.5341 12.0379 2.85557C15.0906 1.23004 18.5257 0.472324 21.974 0.663826C25.4224 0.855327 28.7538 1.98881 31.6102 3.94249C32.8827 4.80972 33.2417 6.10766 32.245 7.41139C30.7629 9.35108 29.3123 11.3139 27.8445 13.2651C26.8651 14.5631 25.8684 15.8524 24.8918 17.1532C22.8811 19.83 20.8705 22.5098 18.8598 25.1924C17.0014 27.6784 15.1516 30.1702 13.2673 32.7083C14.2468 33.6362 15.4503 33.9889 16.6136 34.3329C21.2094 35.6887 25.4748 34.9342 29.4157 32.2284C29.6139 32.0926 29.815 31.9625 30.0161 31.8324C31.2483 31.0317 32.3513 31.1791 33.124 32.3007C33.8621 33.3761 33.6036 34.5988 32.4777 35.44C30.4029 36.9971 28.0394 38.1205 25.5265 38.7442C19.6009 40.2127 14.1951 38.9639 9.26036 35.44C8.99194 35.2384 8.74374 35.0109 8.51929 34.7607C7.70067 33.8733 7.43067 33.0263 8.35844 31.7688C10.6563 28.641 13.0806 25.6115 15.4331 22.5184C17.6706 19.5843 19.8852 16.6329 22.1027 13.6872C23.8376 11.3977 25.5553 9.0938 27.3706 6.66847Z" fill="#50CD8D"/>
<path d="M36.5215 20.2416C36.6255 17.8446 36.1318 15.4596 35.0853 13.3038C34.5252 12.0897 34.6717 11.2485 35.519 10.4362C36.4353 9.56897 37.544 9.64991 38.3569 10.6241C39.4025 11.8787 39.7931 13.4166 40.2297 14.9284C41.2293 18.4291 40.9478 21.9442 40.1952 25.4363C39.9708 26.2687 39.6827 27.0825 39.3335 27.8703C38.9113 28.9745 37.5297 29.7753 36.6019 29.3879C35.1657 28.7953 34.7981 27.9686 35.226 26.3844C35.4501 25.5577 35.7689 24.7541 36.0131 23.9331C36.228 23.3002 36.3903 22.6504 36.4985 21.9905C36.5468 21.4088 36.5545 20.8244 36.5215 20.2416Z" fill="#50CD8D"/>
<path d="M6.44584 13.362C6.34905 13.8896 6.2244 14.4116 6.07243 14.9259C5.3176 17.0035 5.0378 19.2257 5.25381 21.4272C5.39456 22.6991 5.82828 23.9335 6.11552 25.1851C6.26801 25.7831 6.34617 26.3977 6.34819 27.015C6.30797 28.0152 5.46924 28.3245 4.70519 28.5904C4.33619 28.7027 3.941 28.6919 3.57862 28.5596C3.21624 28.4273 2.90611 28.1805 2.69454 27.8562C2.32967 27.2895 2.03997 26.6773 1.83283 26.035C1.22101 23.7687 0.709733 21.4763 0.92516 19.0972C1.11761 16.9494 1.44793 14.8305 2.31539 12.833C2.43576 12.5198 2.58885 12.2204 2.77209 11.9398C3.61082 10.7603 5.50945 10.7632 6.21893 11.9744C6.40563 12.3271 6.35967 12.8128 6.44584 13.362Z" fill="#50CD8D"/>
</svg>
